<svg xmlns="http://www.w3.org/2000/svg" width="1em" height="1em" viewBox="0 0 24 24"><path fill="none" stroke="#f0b638" stroke-linecap="round" stroke-linejoin="round" stroke-width="1.5" d="M15 12c0 1.414 0 2.121.513 2.56c.512.44 1.337.44 2.987.44s2.475 0 2.987-.44C22 14.122 22 13.415 22 12s0-2.121-.513-2.56C20.975 9 20.15 9 18.5 9s-2.475 0-2.987.44C15 9.878 15 10.585 15 12M2 19c0 1.414 0 2.121.41 2.56S3.48 22 4.8 22h1.4c1.32 0 1.98 0 2.39-.44C9 21.122 9 20.415 9 19s0-2.121-.41-2.56S7.52 16 6.2 16H4.8c-1.32 0-1.98 0-2.39.44C2 16.878 2 17.585 2 19M2 5c0 1.414 0 2.121.41 2.56S3.48 8 4.8 8h1.4c1.32 0 1.98 0 2.39-.44C9 7.122 9 6.415 9 5s0-2.121-.41-2.56S7.52 2 6.2 2H4.8c-1.32 0-1.98 0-2.39.44C2 2.878 2 3.585 2 5m10 7.001V7.954C12 6.08 11.083 5.238 9 5m3 7.001v4.047c0 1.768-.779 2.694-3 2.952m3-6.999h3" color="#f0b638"/></svg>