<?xml version="1.0" encoding="UTF-8"?>
<!DOCTYPE svg PUBLIC "-//W3C//DTD SVG 1.1//EN" "http://www.w3.org/Graphics/SVG/1.1/DTD/svg11.dtd">
<svg xmlns="http://www.w3.org/2000/svg" version="1.1" width="512px" height="512px" style="shape-rendering:geometricPrecision; text-rendering:geometricPrecision; image-rendering:optimizeQuality; fill-rule:evenodd; clip-rule:evenodd" xmlns:xlink="http://www.w3.org/1999/xlink">
<g><path style="opacity:1" fill="#00fdec" d="M -0.5,-0.5 C 170.167,-0.5 340.833,-0.5 511.5,-0.5C 511.5,170.167 511.5,340.833 511.5,511.5C 340.833,511.5 170.167,511.5 -0.5,511.5C -0.5,340.833 -0.5,170.167 -0.5,-0.5 Z"/></g>
<g><path style="opacity:1" fill="#00feee" d="M 5.5,67.5 C 172.167,67.5 338.833,67.5 505.5,67.5C 505.5,192.5 505.5,317.5 505.5,442.5C 338.833,442.5 172.167,442.5 5.5,442.5C 5.5,317.5 5.5,192.5 5.5,67.5 Z"/></g>
<g><path style="opacity:1" fill="#305965" d="M 267.5,132.5 C 229.833,131.167 192.167,131.167 154.5,132.5C 154.918,131.778 155.584,131.278 156.5,131C 192.5,130.333 228.5,130.333 264.5,131C 265.737,131.232 266.737,131.732 267.5,132.5 Z"/></g>
<g><path style="opacity:1" fill="#305a65" d="M 418.5,131.5 C 381.476,131.192 344.476,131.525 307.5,132.5C 308.263,131.732 309.263,131.232 310.5,131C 346.669,130.169 382.669,130.336 418.5,131.5 Z"/></g>
<g><path style="opacity:1" fill="#364252" d="M 267.5,132.5 C 271.085,133.088 273.419,135.088 274.5,138.5C 274.994,144.992 275.661,151.325 276.5,157.5C 286.681,148.918 297.014,140.585 307.5,132.5C 344.476,131.525 381.476,131.192 418.5,131.5C 422.59,131.932 425.59,133.932 427.5,137.5C 428.939,142.371 429.606,147.371 429.5,152.5C 428.854,161.156 428.52,169.823 428.5,178.5C 427.802,209.833 427.135,241.166 426.5,272.5C 425.778,284.146 425.278,295.813 425,307.5C 424.245,312.535 422.579,317.202 420,321.5C 398.592,339.453 377.092,357.286 355.5,375C 353.088,376.768 350.421,377.935 347.5,378.5C 314.142,378.805 280.809,378.472 247.5,377.5C 246.504,377.586 245.671,377.252 245,376.5C 243.213,373.637 241.713,370.637 240.5,367.5C 240.187,359.806 239.52,352.139 238.5,344.5C 237.893,344.624 237.56,344.957 237.5,345.5C 226.531,354.659 215.531,363.825 204.5,373C 201.147,375.533 197.481,377.367 193.5,378.5C 161.832,378.667 130.165,378.5 98.5,378C 96.6547,376.872 94.6547,376.372 92.5,376.5C 91.2058,375.71 90.0391,374.71 89,373.5C 87.3575,368.598 86.1909,363.598 85.5,358.5C 84.6967,330.17 84.03,301.837 83.5,273.5C 82.5348,248.175 81.8681,222.842 81.5,197.5C 82.6285,194.815 83.9618,192.148 85.5,189.5C 106.686,171.146 128.02,152.979 149.5,135C 151.078,133.906 152.745,133.072 154.5,132.5C 192.167,131.167 229.833,131.167 267.5,132.5 Z"/></g>
<g><path style="opacity:1" fill="#1ba0a1" d="M 258.5,135.5 C 224.809,135.194 191.142,135.528 157.5,136.5C 158.263,135.732 159.263,135.232 160.5,135C 193.336,134.169 226.003,134.336 258.5,135.5 Z"/></g>
<g><path style="opacity:1" fill="#00feee" d="M 258.5,135.5 C 262.567,135.206 265.9,136.54 268.5,139.5C 269.985,146.055 270.651,152.722 270.5,159.5C 269.748,175.492 269.415,191.492 269.5,207.5C 268.847,220.156 268.514,232.823 268.5,245.5C 267.823,266.015 266.99,286.682 266,307.5C 265.751,311.761 264.251,315.428 261.5,318.5C 259.914,319.148 258.247,319.648 256.5,320C 241,320.167 225.5,320.333 210,320.5C 193.436,320.645 176.936,320.145 160.5,319C 159.333,317.833 158.167,316.667 157,315.5C 155.617,310.92 154.617,306.253 154,301.5C 153.5,288.504 153.333,275.504 153.5,262.5C 152.667,235.335 151.667,208.335 150.5,181.5C 150.333,168.829 150.5,156.162 151,143.5C 151.819,139.829 153.985,137.495 157.5,136.5C 191.142,135.528 224.809,135.194 258.5,135.5 Z"/></g>
<g><path style="opacity:1" fill="#00fded" d="M 309.5,310.5 C 308.978,303.012 308.311,295.678 307.5,288.5C 307.5,286.5 307.5,284.5 307.5,282.5C 307.062,240.988 306.062,199.488 304.5,158C 304.667,153.5 304.833,149 305,144.5C 305.655,142.372 306.489,140.372 307.5,138.5C 309.221,136.306 311.555,135.139 314.5,135C 348.867,134.042 383.2,134.375 417.5,136C 420.667,137.167 422.833,139.333 424,142.5C 423.795,195.178 422.795,247.844 421,300.5C 420.869,305.682 419.869,310.682 418,315.5C 416.269,317.617 414.102,319.117 411.5,320C 379.833,320.667 348.167,320.667 316.5,320C 312.447,318.112 310.114,314.946 309.5,310.5 Z"/></g>
<g><path style="opacity:1" fill="#1da5a4" d="M 307.5,138.5 C 306.489,140.372 305.655,142.372 305,144.5C 304.833,149 304.667,153.5 304.5,158C 306.062,199.488 307.062,240.988 307.5,282.5C 305.256,236.348 304.09,190.015 304,143.5C 304.223,141.119 305.39,139.453 307.5,138.5 Z"/></g>
<g><path style="opacity:1" fill="#209597" d="M 274.5,138.5 C 275.268,139.263 275.768,140.263 276,141.5C 276.499,146.823 276.666,152.156 276.5,157.5C 275.661,151.325 274.994,144.992 274.5,138.5 Z"/></g>
<g><path style="opacity:1" fill="#19bdb8" d="M 427.5,137.5 C 428.966,138.347 429.8,139.68 430,141.5C 430.619,153.846 430.452,166.179 429.5,178.5C 429.167,178.5 428.833,178.5 428.5,178.5C 428.52,169.823 428.854,161.156 429.5,152.5C 429.606,147.371 428.939,142.371 427.5,137.5 Z"/></g>
<g><path style="opacity:1" fill="#209b9b" d="M 268.5,139.5 C 269.79,140.058 270.623,141.058 271,142.5C 271.589,164.347 271.089,186.014 269.5,207.5C 269.415,191.492 269.748,175.492 270.5,159.5C 270.651,152.722 269.985,146.055 268.5,139.5 Z"/></g>
<g><path style="opacity:1" fill="#229294" d="M 207.5,179.5 C 209.5,179.5 211.5,179.5 213.5,179.5C 213.5,211.833 213.5,244.167 213.5,276.5C 211.5,276.5 209.5,276.5 207.5,276.5C 207.5,244.167 207.5,211.833 207.5,179.5 Z"/></g>
<g><path style="opacity:1" fill="#354554" d="M 208.5,180.5 C 209.833,180.5 211.167,180.5 212.5,180.5C 212.5,212.167 212.5,243.833 212.5,275.5C 211.167,275.5 209.833,275.5 208.5,275.5C 208.5,243.833 208.5,212.167 208.5,180.5 Z"/></g>
<g><path style="opacity:1" fill="#257d82" d="M 366.5,180.5 C 365.167,180.5 363.833,180.5 362.5,180.5C 362.5,212.167 362.5,243.833 362.5,275.5C 363.833,275.5 365.167,275.5 366.5,275.5C 365.081,276.451 363.415,276.784 361.5,276.5C 361.5,244.167 361.5,211.833 361.5,179.5C 363.415,179.216 365.081,179.549 366.5,180.5 Z"/></g>
<g><path style="opacity:1" fill="#364353" d="M 366.5,180.5 C 366.5,212.167 366.5,243.833 366.5,275.5C 365.167,275.5 363.833,275.5 362.5,275.5C 362.5,243.833 362.5,212.167 362.5,180.5C 363.833,180.5 365.167,180.5 366.5,180.5 Z"/></g>
<g><path style="opacity:1" fill="#30646e" d="M 150.5,181.5 C 151.667,208.335 152.667,235.335 153.5,262.5C 152.691,260.708 152.191,258.708 152,256.5C 151.084,231.507 150.584,206.507 150.5,181.5 Z"/></g>
<g><path style="opacity:1" fill="#13cfc7" d="M 428.5,178.5 C 428.833,178.5 429.167,178.5 429.5,178.5C 429.643,210.03 428.643,241.363 426.5,272.5C 427.135,241.166 427.802,209.833 428.5,178.5 Z"/></g>
<g><path style="opacity:1" fill="#10d4cb" d="M 81.5,197.5 C 81.8681,222.842 82.5348,248.175 83.5,273.5C 83.1667,273.5 82.8333,273.5 82.5,273.5C 80.7012,248.024 80.3679,222.691 81.5,197.5 Z"/></g>
<g><path style="opacity:1" fill="#1cacaa" d="M 307.5,288.5 C 308.311,295.678 308.978,303.012 309.5,310.5C 308.883,310.389 308.383,310.056 308,309.5C 307.5,302.508 307.334,295.508 307.5,288.5 Z"/></g>
<g><path style="opacity:1" fill="#0bded4" d="M 82.5,273.5 C 82.8333,273.5 83.1667,273.5 83.5,273.5C 84.03,301.837 84.6967,330.17 85.5,358.5C 83.3232,330.367 82.3232,302.034 82.5,273.5 Z"/></g>
<g><path style="opacity:1" fill="#2c8086" d="M 268.5,245.5 C 268.869,267.859 268.369,290.192 267,312.5C 265.956,313.623 265.29,314.956 265,316.5C 264.184,317.823 263.017,318.489 261.5,318.5C 264.251,315.428 265.751,311.761 266,307.5C 266.99,286.682 267.823,266.015 268.5,245.5 Z"/></g>
<g><path style="opacity:1" fill="#1f9b9c" d="M 237.5,345.5 C 237.56,344.957 237.893,344.624 238.5,344.5C 239.52,352.139 240.187,359.806 240.5,367.5C 239.033,360.229 238.033,352.895 237.5,345.5 Z"/></g>
<g><path style="opacity:1" fill="#2f5d68" d="M 92.5,376.5 C 94.6547,376.372 96.6547,376.872 98.5,378C 130.165,378.5 161.832,378.667 193.5,378.5C 161.336,379.664 129.003,379.831 96.5,379C 94.9336,378.392 93.6002,377.558 92.5,376.5 Z"/></g>
<g><path style="opacity:1" fill="#2f5e69" d="M 247.5,377.5 C 280.809,378.472 314.142,378.805 347.5,378.5C 315.336,379.664 283.003,379.831 250.5,379C 249.263,378.768 248.263,378.268 247.5,377.5 Z"/></g>
</svg>
