<?xml version="1.0" encoding="UTF-8"?>
<!DOCTYPE svg PUBLIC "-//W3C//DTD SVG 1.1//EN" "http://www.w3.org/Graphics/SVG/1.1/DTD/svg11.dtd">
<svg xmlns="http://www.w3.org/2000/svg" version="1.1" width="300px" height="300px" style="shape-rendering:geometricPrecision; text-rendering:geometricPrecision; image-rendering:optimizeQuality; fill-rule:evenodd; clip-rule:evenodd" xmlns:xlink="http://www.w3.org/1999/xlink">
<g><path style="opacity:1" fill="#fefefe" d="M -0.5,-0.5 C 99.5,-0.5 199.5,-0.5 299.5,-0.5C 299.5,99.5 299.5,199.5 299.5,299.5C 199.5,299.5 99.5,299.5 -0.5,299.5C -0.5,199.5 -0.5,99.5 -0.5,-0.5 Z"/></g>
<g><path style="opacity:1" fill="#b9b9ba" d="M 154.5,76.5 C 157.167,77.1667 158.833,78.8333 159.5,81.5C 157.5,80.1667 155.833,78.5 154.5,76.5 Z"/></g>
<g><path style="opacity:1" fill="#4c5052" d="M 154.5,76.5 C 155.833,78.5 157.5,80.1667 159.5,81.5C 161.18,84.0129 163.347,86.0129 166,87.5C 180.894,84.0473 188.561,90.0473 189,105.5C 195.127,110.839 197.127,117.506 195,125.5C 192.365,130.636 188.199,133.636 182.5,134.5C 180.688,137.603 179.688,140.936 179.5,144.5C 178.028,148.919 177.362,153.586 177.5,158.5C 178.076,163.118 177.076,167.285 174.5,171C 165.881,170.174 157.215,169.341 148.5,168.5C 139.893,170.091 131.227,170.591 122.5,170C 120.389,159.938 118.722,149.771 117.5,139.5C 109.43,138.272 104.263,133.606 102,125.5C 101.333,122.5 101.333,119.5 102,116.5C 106.908,110.075 108.908,102.742 108,94.5C 118.027,73.7757 133.527,67.7757 154.5,76.5 Z"/></g>
<g><path style="opacity:1" fill="#00b7db" d="M 177.5,134.5 C 175.941,141.749 174.941,149.083 174.5,156.5C 173.691,158.292 173.191,160.292 173,162.5C 167.9,159.534 162.4,158.201 156.5,158.5C 149.054,158.222 141.721,158.888 134.5,160.5C 133.069,160.119 132.236,159.119 132,157.5C 127.273,134.902 136.106,125.402 158.5,129C 164.745,130.98 171.078,132.813 177.5,134.5 Z"/></g>
<g><path style="opacity:1" fill="#21889d" d="M 184.5,99.5 C 185.477,102.287 185.81,105.287 185.5,108.5C 186.791,108.263 187.791,108.596 188.5,109.5C 186.876,109.36 185.71,110.027 185,111.5C 184.501,107.514 184.334,103.514 184.5,99.5 Z"/></g>
<g><path style="opacity:1" fill="#048b9e" d="M 126.5,80.5 C 119.594,87.0842 118.761,94.4175 124,102.5C 124.903,103.701 126.069,104.535 127.5,105C 135.957,105.118 144.29,106.118 152.5,108C 159.324,113.245 166.324,118.245 173.5,123C 186.647,128.029 191.647,123.529 188.5,109.5C 190.074,109.937 191.241,110.937 192,112.5C 194.033,121.428 191.033,127.761 183,131.5C 179.776,129.705 177.943,130.705 177.5,134.5C 171.078,132.813 164.745,130.98 158.5,129C 136.106,125.402 127.273,134.902 132,157.5C 132.236,159.119 133.069,160.119 134.5,160.5C 130.693,162.549 126.693,164.216 122.5,165.5C 121.534,154.842 121.034,144.175 121,133.5C 122.5,132 124,130.5 125.5,129C 130.313,127.885 134.98,126.719 139.5,125.5C 148.09,125.172 156.59,125.838 165,127.5C 166.608,127.026 166.774,126.359 165.5,125.5C 155.684,122.728 145.684,121.895 135.5,123C 134.584,123.278 133.918,123.778 133.5,124.5C 128.891,125.756 124.225,126.922 119.5,128C 116.875,130.196 115.875,133.03 116.5,136.5C 110.558,135.388 107.058,131.722 106,125.5C 105.086,120.804 105.586,116.304 107.5,112C 108.448,111.517 109.448,111.351 110.5,111.5C 108.734,97.3612 114.068,87.0279 126.5,80.5 Z"/></g>
<g><path style="opacity:1" fill="#2c656e" d="M 139.5,125.5 C 143.647,124.675 147.981,124.175 152.5,124C 146.138,123.347 139.805,123.513 133.5,124.5C 133.918,123.778 134.584,123.278 135.5,123C 145.684,121.895 155.684,122.728 165.5,125.5C 166.774,126.359 166.608,127.026 165,127.5C 156.59,125.838 148.09,125.172 139.5,125.5 Z"/></g>
<g><path style="opacity:1" fill="#2b7b8d" d="M 146.5,76.5 C 140.237,76.0582 134.237,77.0582 128.5,79.5C 130.385,77.6885 132.719,76.5218 135.5,76C 139.358,75.1901 143.024,75.3567 146.5,76.5 Z"/></g>
<g><path style="opacity:1" fill="#01b7da" d="M 146.5,76.5 C 155.333,79.8274 161.833,85.8274 166,94.5C 166.79,88.8763 169.957,87.0429 175.5,89C 179.798,91.4593 182.798,94.9593 184.5,99.5C 184.334,103.514 184.501,107.514 185,111.5C 185.71,110.027 186.876,109.36 188.5,109.5C 191.647,123.529 186.647,128.029 173.5,123C 166.324,118.245 159.324,113.245 152.5,108C 144.29,106.118 135.957,105.118 127.5,105C 126.069,104.535 124.903,103.701 124,102.5C 118.761,94.4175 119.594,87.0842 126.5,80.5C 126.842,79.6618 127.508,79.3284 128.5,79.5C 134.237,77.0582 140.237,76.0582 146.5,76.5 Z"/></g>
<g><path style="opacity:1" fill="#c5c5c6" d="M 179.5,144.5 C 179.771,149.434 179.104,154.1 177.5,158.5C 177.362,153.586 178.028,148.919 179.5,144.5 Z"/></g>
<g><path style="opacity:1" fill="#218da4" d="M 174.5,156.5 C 174.5,158.833 174.5,161.167 174.5,163.5C 168.397,161.81 162.397,160.144 156.5,158.5C 162.4,158.201 167.9,159.534 173,162.5C 173.191,160.292 173.691,158.292 174.5,156.5 Z"/></g>
<g><path style="opacity:1" fill="#4f4f51" d="M 121.5,178.5 C 127.758,178.19 133.924,178.524 140,179.5C 140.72,181.112 140.554,182.612 139.5,184C 135.179,184.499 130.846,184.666 126.5,184.5C 126.5,185.833 126.5,187.167 126.5,188.5C 129.833,188.5 133.167,188.5 136.5,188.5C 136.785,190.288 136.452,191.955 135.5,193.5C 132.579,194.407 129.579,194.74 126.5,194.5C 126.5,195.5 126.5,196.5 126.5,197.5C 131.099,197.2 135.599,197.533 140,198.5C 140.72,200.112 140.554,201.612 139.5,203C 133.251,203.809 127.084,203.642 121,202.5C 120.2,194.421 120.367,186.421 121.5,178.5 Z"/></g>
<g><path style="opacity:1" fill="#4d4d4f" d="M 193.5,178.5 C 197.257,178.071 200.757,178.737 204,180.5C 204.72,182.112 204.554,183.612 203.5,185C 201.323,185.345 199.323,184.845 197.5,183.5C 194.025,184.286 193.692,185.786 196.5,188C 203.661,188.152 206.828,191.652 206,198.5C 203.103,203.155 198.937,204.655 193.5,203C 191.154,201.987 189.487,200.321 188.5,198C 188.734,196.268 189.734,195.434 191.5,195.5C 193.5,196.5 195.5,197.5 197.5,198.5C 199.266,198.566 200.266,197.732 200.5,196C 198.211,194.078 195.545,192.745 192.5,192C 187.045,187.011 187.378,182.511 193.5,178.5 Z"/></g>
<g><path style="opacity:1" fill="#4b4b4d" d="M 112.5,202.5 C 112.826,198.116 112.492,193.783 111.5,189.5C 110.893,189.624 110.56,189.957 110.5,190.5C 106.5,198.5 102.5,198.5 98.5,190.5C 98.44,189.957 98.1067,189.624 97.5,189.5C 96.5078,193.783 96.1744,198.116 96.5,202.5C 95.1155,203.801 93.6155,203.801 92,202.5C 91.3333,194.833 91.3333,187.167 92,179.5C 93.3876,178.446 94.8876,178.28 96.5,179C 98.8204,182.485 101.487,185.651 104.5,188.5C 107.392,185.729 110.058,182.729 112.5,179.5C 114.045,178.548 115.712,178.215 117.5,178.5C 117.5,186.833 117.5,195.167 117.5,203.5C 115.585,203.784 113.919,203.451 112.5,202.5 Z"/></g>
<g><path style="opacity:1" fill="#4e4e50" d="M 152.5,178.5 C 154.39,178.297 155.89,178.963 157,180.5C 160.442,187.051 163.609,193.717 166.5,200.5C 166.5,202.5 165.5,203.5 163.5,203.5C 161.6,202.553 160.267,201.053 159.5,199C 155.848,198.501 152.182,198.335 148.5,198.5C 148.81,202.332 147.143,203.832 143.5,203C 142.941,202.275 142.608,201.442 142.5,200.5C 145.297,192.908 148.63,185.574 152.5,178.5 Z"/></g>
<g><path style="opacity:1" fill="#505052" d="M 169.5,178.5 C 171.144,178.286 172.644,178.62 174,179.5C 174.5,185.825 174.666,192.158 174.5,198.5C 178.5,198.5 182.5,198.5 186.5,198.5C 186.5,200.167 186.5,201.833 186.5,203.5C 180.575,203.808 174.741,203.475 169,202.5C 168.2,194.421 168.367,186.421 169.5,178.5 Z"/></g>
<g><path style="opacity:1" fill="#939394" d="M 98.5,190.5 C 97.8333,194.5 97.1667,198.5 96.5,202.5C 96.1744,198.116 96.5078,193.783 97.5,189.5C 98.1067,189.624 98.44,189.957 98.5,190.5 Z"/></g>
<g><path style="opacity:1" fill="#aeaeaf" d="M 110.5,190.5 C 110.56,189.957 110.893,189.624 111.5,189.5C 112.492,193.783 112.826,198.116 112.5,202.5C 111.833,198.5 111.167,194.5 110.5,190.5 Z"/></g>
<g><path style="opacity:1" fill="#d2d2d2" d="M 153.5,189.5 C 157.708,191.926 157.375,193.259 152.5,193.5C 152.433,192.041 152.766,190.708 153.5,189.5 Z"/></g>
<g><path style="opacity:1" fill="#505052" d="M 128.5,215.5 C 129.376,215.369 130.043,215.702 130.5,216.5C 129.691,218.071 129.357,219.738 129.5,221.5C 133.021,221.17 136.021,219.67 138.5,217C 140.034,216.077 141.701,215.577 143.5,215.5C 147.825,216.397 152.159,216.564 156.5,216C 160.578,218.614 164.911,220.447 169.5,221.5C 169.5,220.167 169.5,218.833 169.5,217.5C 168.325,217.719 167.325,217.386 166.5,216.5C 172.152,215.515 173.819,217.848 171.5,223.5C 163.99,227.708 156.656,227.375 149.5,222.5C 142.593,226.81 135.426,227.476 128,224.5C 125.88,221.303 126.047,218.303 128.5,215.5 Z"/></g>
</svg>
